<svg id="Layer_1" data-name="Layer 1" xmlns="http://www.w3.org/2000/svg" width="834" height="318.229" viewBox="0 0 834 318.229"><defs><style>.cls-1{fill:#ed1c24;}.cls-2{fill:#231f20;}</style></defs><path class="cls-1" d="M407.83,184.0211H244.5489s-9.2406-10.4663,3.6341-14.3462h153.81s18.4736-21.3783,44.9451-.2356h36.1455s5.0825-.6416,7.1629,7.4462l12.01,64.71L521.0677,64.1889s5.5291-16.6494,14.7872-2.4638l27.4135,107.842,21.5692.3085s34.6164-32.7542,82.6715-.3958H798.7825s12.9425,5.3233,1.1431,14.5763H660.3211s-32.1906-32.669-70.075-.173h-37.133l-20.9574-77.0152L511.494,291.7353s-.7618,8.9527-6.7667,9.253c-5.99.3207-7.85-4.7566-8.3208-12.015l-19.5792-104.25-36.4863-.0554s-14.9371-21.9373-32.5114-.6463"/><path class="cls-1" d="M184.892,119.2791c34.1328,58.306-21.7119,149.6243-108.5236,118.2257C-6.143,195.144,37.4209,117.2691,37.4209,117.2691s-13.5517,25.8644,10.7944,61.243c33.2233,42.757,70.3183,25.5666,70.3183,25.5666s56.1856-21.5363,36.341-78.6694c-20.11-57.7819-72.4438-45.9851-72.4438-45.9851s63.6569-26.4136,102.4612,39.8549"/><path class="cls-1" d="M66.0073,123.0133c-38.9752-24.75-33.6417-97.7195,28.96-105.7868,63.3583-.1032,61.2707,60.8493,61.2707,60.8493s.1427-19.9473-25.7119-33.8347c-33.5836-15.5638-50.7468,6.4664-50.7468,6.4664s-27.3909,30.6692,2.5438,59.17c30.2909,28.8173,58.4189,5.2735,58.4189,5.2735s-30.429,35.99-74.7346,7.862"/><polygon class="cls-2" points="251.636 83.48 305.045 83.48 305.045 97.519 287.125 97.519 287.125 140.331 269.557 140.331 269.557 97.519 251.636 97.519 251.636 83.48"/><path class="cls-2" d="M315.93,112.4771l-15.0848-1.5814a16.9585,16.9585,0,0,1,2.4632-6.2308,13.6875,13.6875,0,0,1,4.6293-3.9271,19.661,19.661,0,0,1,5.9751-1.8648,47.5307,47.5307,0,0,1,8.2229-.6519,65.01,65.01,0,0,1,11.4036.792,14.7217,14.7217,0,0,1,7.1777,3.3158,11.78,11.78,0,0,1,3.1809,4.9476,17.7458,17.7458,0,0,1,1.1554,6.1076V131.57a21.771,21.771,0,0,0,.3757,4.559,20.2384,20.2384,0,0,0,1.6014,4.2028H332.2157a15.7018,15.7018,0,0,1-1.1605-2.4207,18.9049,18.9049,0,0,1-.5441-2.6193,20.4076,20.4076,0,0,1-6.165,4.2659,25.7348,25.7348,0,0,1-9.7319,1.7093q-7.3651,0-11.188-3.4088a10.8319,10.8319,0,0,1-3.82-8.4235,11.0143,11.0143,0,0,1,2.7522-7.7141q2.7479-3.0189,10.1579-4.4964,8.8835-1.7931,11.5237-2.5089a53.1681,53.1681,0,0,0,5.5841-1.8745c0-1.9448-.4112-3.2958-1.2057-4.0652-.8018-.7843-2.2128-1.1657-4.2254-1.1657a10.95,10.95,0,0,0-5.82,1.2334,6.8108,6.8108,0,0,0-2.4438,3.6341m13.6945,8.308c-2.1779.7822-4.441,1.4639-6.7918,2.06-3.208.8469-5.2309,1.6867-6.0932,2.5136a3.9722,3.9722,0,0,0-1.3078,2.91,3.9192,3.9192,0,0,0,1.2929,3.0453,5.4884,5.4884,0,0,0,3.82,1.19,9.8888,9.8888,0,0,0,4.907-1.2832,7.7522,7.7522,0,0,0,3.2183-3.13,10.3516,10.3516,0,0,0,.9547-4.78Z"/><path class="cls-2" d="M351.4187,83.48h15.9375v19.704a15.5588,15.5588,0,0,1,5.3782-3.7265,17.2929,17.2929,0,0,1,6.6516-1.236,16.1138,16.1138,0,0,1,12.4487,5.4039c3.2834,3.6089,4.9275,8.772,4.9275,15.5263a29.4767,29.4767,0,0,1-2.2533,11.9,16.7507,16.7507,0,0,1-6.2256,7.672,16.0825,16.0825,0,0,1-8.8244,2.5413,16.343,16.343,0,0,1-7.6017-1.7847,19.8454,19.8454,0,0,1-5.6616-5.23v6.0825H351.4187Zm15.8245,36.1352q0,5.3271,2.0024,7.7044a6.3106,6.3106,0,0,0,5.0553,2.3909,5.9077,5.9077,0,0,0,4.752-2.3509c1.2781-1.5491,1.9248-4.193,1.9248-7.8948,0-3.2532-.6365-5.6441-1.8874-7.1654a5.6782,5.6782,0,0,0-4.5641-2.2934,6.6143,6.6143,0,0,0-5.25,2.3714c-1.356,1.5963-2.0326,4.0149-2.0326,7.2378"/><path class="cls-2" d="M399.632,83.48h15.9369v19.704a15.5474,15.5474,0,0,1,5.3736-3.7265,17.2758,17.2758,0,0,1,6.6465-1.236A16.097,16.097,0,0,1,440.04,103.625c3.2881,3.6089,4.9276,8.772,4.9276,15.5263a29.3911,29.3911,0,0,1-2.2508,11.9,16.6558,16.6558,0,0,1-6.2256,7.672,16.0811,16.0811,0,0,1-8.8218,2.5413,16.405,16.405,0,0,1-7.6043-1.7847,19.8739,19.8739,0,0,1-5.659-5.23v6.0825H399.632Zm15.8168,36.1352c0,3.5514.6765,6.1178,2.0049,7.7044a6.3335,6.3335,0,0,0,5.0579,2.3909,5.9049,5.9049,0,0,0,4.752-2.3509c1.2781-1.5491,1.9248-4.193,1.9248-7.8948q0-4.88-1.89-7.1654a5.6771,5.6771,0,0,0-4.5616-2.2934,6.5909,6.5909,0,0,0-5.2478,2.3714c-1.3535,1.5963-2.04,4.0149-2.04,7.2378"/><path class="cls-2" d="M462.1556,112.4771l-15.0875-1.5814a17.0064,17.0064,0,0,1,2.4607-6.2308,13.6951,13.6951,0,0,1,4.637-3.9271A19.5679,19.5679,0,0,1,460.14,98.873a47.4271,47.4271,0,0,1,8.2208-.6519,65.0892,65.0892,0,0,1,11.4036.792,14.7371,14.7371,0,0,1,7.1727,3.3158,11.6553,11.6553,0,0,1,3.1782,4.9476,17.7619,17.7619,0,0,1,1.1626,6.1076V131.57a21.646,21.646,0,0,0,.3711,4.559,20.4968,20.4968,0,0,0,1.5989,4.2028H478.4462a15.21,15.21,0,0,1-1.1677-2.4207,18.2324,18.2324,0,0,1-.5513-2.6193,20.2437,20.2437,0,0,1-6.16,4.2659,25.6949,25.6949,0,0,1-9.7293,1.7093q-7.3759,0-11.1932-3.4088a10.8482,10.8482,0,0,1-3.8194-8.4235,11.0487,11.0487,0,0,1,2.7518-7.7141q2.7594-3.0189,10.1655-4.4964,8.8719-1.7931,11.5187-2.5089a54.2575,54.2575,0,0,0,5.5891-1.8745c0-1.9448-.406-3.2958-1.2083-4.0652-.8017-.7843-2.21-1.1657-4.2305-1.1657a10.9619,10.9619,0,0,0-5.82,1.2334,6.7484,6.7484,0,0,0-2.436,3.6341m13.6944,8.308c-2.1758.7822-4.4461,1.4639-6.7923,2.06q-4.812,1.27-6.09,2.5136a3.9539,3.9539,0,0,0-1.3084,2.91,3.9114,3.9114,0,0,0,1.2832,3.0453,5.51,5.51,0,0,0,3.8245,1.19,9.9174,9.9174,0,0,0,4.9075-1.2832,7.751,7.751,0,0,0,3.2183-3.13,10.3484,10.3484,0,0,0,.9573-4.78Z"/><polygon class="cls-2" points="588.166 83.48 605.735 83.48 605.735 103.379 624.933 103.379 624.933 83.48 642.572 83.48 642.572 140.331 624.933 140.331 624.933 117.332 605.735 117.332 605.735 140.331 588.166 140.331 588.166 83.48"/><path class="cls-2" d="M690.9832,123.66H659.329a10.2613,10.2613,0,0,0,2.0649,5.6615,7.5079,7.5079,0,0,0,5.97,2.6794,9.0558,9.0558,0,0,0,4.426-1.1631,10.6712,10.6712,0,0,0,2.7471-2.5988l15.5535,1.4285a22.39,22.39,0,0,1-8.601,8.91q-5.0609,2.6731-14.4767,2.6844c-5.4485,0-9.7391-.76-12.8721-2.3056a18.9189,18.9189,0,0,1-7.7742-7.3385,22.0629,22.0629,0,0,1-3.0828-11.807q0-9.6465,6.18-15.6244,6.1879-5.973,17.0929-5.9623c5.8894,0,10.5464.8772,13.9546,2.6691a18.0672,18.0672,0,0,1,7.8,7.7547q2.6685,5.0822,2.6717,13.2181Zm-16.0555-7.5638c-.3106-3.0453-1.1329-5.236-2.4613-6.5515a7.7364,7.7364,0,0,0-11.2727,1.0024,11.0218,11.0218,0,0,0-1.81,5.5491Z"/><path class="cls-2" d="M707.8651,112.4771l-15.0829-1.5814a17.0149,17.0149,0,0,1,2.4612-6.2308,13.7029,13.7029,0,0,1,4.6267-3.9271,19.6617,19.6617,0,0,1,5.9752-1.8648,47.518,47.518,0,0,1,8.2254-.6519,65.09,65.09,0,0,1,11.4036.792,14.7007,14.7007,0,0,1,7.168,3.3158,11.5626,11.5626,0,0,1,3.1777,4.9476,17.63,17.63,0,0,1,1.1631,6.1076V131.57a22.3707,22.3707,0,0,0,.3706,4.559,20.4448,20.4448,0,0,0,1.6194,4.2028H724.151a15.527,15.527,0,0,1-1.1631-2.4207,17.29,17.29,0,0,1-.5415-2.6193,20.3875,20.3875,0,0,1-6.17,4.2659,25.71,25.71,0,0,1-9.74,1.7093q-7.3605,0-11.1778-3.4088a10.8366,10.8366,0,0,1-3.8245-8.4235,11.0021,11.0021,0,0,1,2.7517-7.7141q2.7594-3.0189,10.1708-4.4964c5.9094-1.1954,9.7544-2.0274,11.5083-2.5089a52.2649,52.2649,0,0,0,5.5892-1.8745c0-1.9448-.3958-3.2958-1.2078-4.0652-.792-.7843-2.2056-1.1657-4.2208-1.1657a10.95,10.95,0,0,0-5.82,1.2334,6.7526,6.7526,0,0,0-2.4411,3.6341m13.6893,8.308c-2.1754.7822-4.4312,1.4639-6.7867,2.06-3.2034.8469-5.2386,1.6867-6.0906,2.5136a4.0414,4.0414,0,0,0-.02,5.9551,5.484,5.484,0,0,0,3.8244,1.19,9.9111,9.9111,0,0,0,4.9024-1.2832,7.6912,7.6912,0,0,0,3.2183-3.13,10.4189,10.4189,0,0,0,.9522-4.78Z"/><path class="cls-2" d="M740.2512,99.1512h14.7769v6.7446c1.4234-2.9278,2.8822-4.9276,4.4009-6.0327a9.2869,9.2869,0,0,1,5.6092-1.642,16.6638,16.6638,0,0,1,7.6341,2.16l-4.887,11.2506a12.3662,12.3662,0,0,0-4.4163-1.1477,5.4683,5.4683,0,0,0-4.8171,2.5439q-2.4285,3.6124-2.4361,13.5065v13.7966H740.2512Z"/><path class="cls-2" d="M795.1936,83.48V99.1512h8.6817V110.7h-8.6817v14.6014a7.8472,7.8472,0,0,0,.5015,3.4765,2.88,2.88,0,0,0,2.7163,1.3232,17.49,17.49,0,0,0,4.8875-1.0153l1.1528,10.8975a51.3993,51.3993,0,0,1-10.9324,1.2833c-3.9246,0-6.8221-.5092-8.6868-1.5091a9.2821,9.2821,0,0,1-4.135-4.5939c-.8875-2.06-1.3336-5.3761-1.3336-9.97V110.7H773.55V99.1512h5.8144V91.5849Z"/><rect class="cls-2" x="578.0853" y="204.3241" width="6.6717" height="33.0503"/><path class="cls-2" d="M619.3138,237.3744H612.983V225.1537a18.7165,18.7165,0,0,0-.4111-5.0025,3.6232,3.6232,0,0,0-1.3182-1.7893,3.8911,3.8911,0,0,0-2.2009-.6216,5.0729,5.0729,0,0,0-2.9519.9024,4.59,4.59,0,0,0-1.795,2.4011,20.5943,20.5943,0,0,0-.486,5.4937v10.8369H597.489V213.44h5.8848v3.5114a9.8581,9.8581,0,0,1,11.7244-3.3061,6.3055,6.3055,0,0,1,2.6214,1.94,6.921,6.921,0,0,1,1.2432,2.6614,19.4486,19.4486,0,0,1,.351,4.2556Z"/><path class="cls-2" d="M630.9028,230.5524l6.356-.9824a4.5988,4.5988,0,0,0,1.6491,2.8117,5.5177,5.5177,0,0,0,3.4734.9578,6.3573,6.3573,0,0,0,3.6941-.8875,2.0464,2.0464,0,0,0,.8321-1.7041,1.6076,1.6076,0,0,0-.4507-1.1831,5.0251,5.0251,0,0,0-2.12-.8469q-7.6614-1.6769-9.7246-3.0828a6.1683,6.1683,0,0,1-2.837-5.3987,6.6392,6.6392,0,0,1,2.4561-5.218q2.4591-2.1167,7.6289-2.12c3.2784,0,5.71.5389,7.2933,1.5865a8.2558,8.2558,0,0,1,3.3035,4.75l-5.9751,1.1128a3.7473,3.7473,0,0,0-1.4583-2.1553,5.296,5.296,0,0,0-3.0479-.7417,6.7749,6.7749,0,0,0-3.5889.6965,1.473,1.473,0,0,0-.717,1.2884,1.3792,1.3792,0,0,0,.6216,1.1477c.5764.4162,2.5515,1.0173,5.93,1.7795,3.3687.7617,5.7242,1.7092,7.0526,2.822a5.8255,5.8255,0,0,1,1.99,4.7166,7.1976,7.1976,0,0,1-2.7466,5.6441c-1.8345,1.5794-4.5564,2.3811-8.1356,2.3811a13.3772,13.3772,0,0,1-7.7541-1.99,9.1022,9.1022,0,0,1-3.7244-5.3833"/><path class="cls-2" d="M677.1886,213.44v5.0379h-4.331v9.6487a26.001,26.001,0,0,0,.12,3.4339,1.3944,1.3944,0,0,0,.5666.7971,1.8842,1.8842,0,0,0,1.0677.3156,8.0793,8.0793,0,0,0,2.5464-.6066l.5363,4.9121a12.5208,12.5208,0,0,1-4.9927.9475,7.995,7.995,0,0,1-3.0976-.5764,4.4846,4.4846,0,0,1-2.0152-1.4885,5.9929,5.9929,0,0,1-.8921-2.4715,30.7929,30.7929,0,0,1-.2-4.4661V218.4774h-2.9123V213.44h2.9123v-4.7546l6.3607-3.6992V213.44Z"/><path class="cls-2" d="M688.9731,204.3241h6.3257v5.8673h-6.3257Zm0,9.1154h6.3257v23.9349h-6.3257Z"/><path class="cls-2" d="M719.2435,213.44v5.0379H714.913v9.6487a23.3612,23.3612,0,0,0,.13,3.4339,1.36,1.36,0,0,0,.561.7971,1.8967,1.8967,0,0,0,1.0677.3156,8.1066,8.1066,0,0,0,2.5464-.6066l.5415,4.9121a12.57,12.57,0,0,1-5.0025.9475,8.0022,8.0022,0,0,1-3.0925-.5764,4.5538,4.5538,0,0,1-2.02-1.4885,6.0593,6.0593,0,0,1-.8869-2.4715,31.0093,31.0093,0,0,1-.1956-4.4661V218.4774h-2.9175V213.44h2.9175v-4.7546l6.3509-3.6992V213.44Z"/><path class="cls-2" d="M745.87,237.3744v-3.5791a9.19,9.19,0,0,1-3.4436,3.0125,9.4262,9.4262,0,0,1-4.4912,1.123,8.8217,8.8217,0,0,1-4.3357-1.0676,6.3556,6.3556,0,0,1-2.7769-2.9776,13.4611,13.4611,0,0,1-.8572-5.3032V213.44h6.3458v11.0027a29.9885,29.9885,0,0,0,.351,6.19,3.4083,3.4083,0,0,0,1.273,1.8047,3.9487,3.9487,0,0,0,2.3359.6564,4.9639,4.9639,0,0,0,2.9124-.8869,4.53,4.53,0,0,0,1.7544-2.2056c.3208-.8772.4763-3.0427.4763-6.4715V213.44h6.3406v23.9349Z"/><path class="cls-2" d="M776.6774,213.44v5.0379h-4.3208v9.6487a23.7471,23.7471,0,0,0,.1252,3.4339,1.3725,1.3725,0,0,0,.5564.7971,1.9125,1.9125,0,0,0,1.0728.3156,8.1119,8.1119,0,0,0,2.5464-.6066l.5513,4.9121a12.6639,12.6639,0,0,1-5.0174.9475,7.9713,7.9713,0,0,1-3.0828-.5764,4.442,4.442,0,0,1-2.02-1.4885,5.8427,5.8427,0,0,1-.8921-2.4715,31.2862,31.2862,0,0,1-.2059-4.4661V218.4774h-2.9021V213.44H765.99v-4.7546l6.3663-3.6992V213.44Z"/><path class="cls-2" d="M801.409,229.7655l6.3211,1.0574a10.2888,10.2888,0,0,1-3.8548,5.2781,11.1655,11.1655,0,0,1-6.5664,1.83c-4.1653,0-7.2384-1.3684-9.2484-4.08a13.7825,13.7825,0,0,1-2.3657-8.2556q0-5.97,3.1131-9.3259a10.2175,10.2175,0,0,1,7.8742-3.3687,10.6,10.6,0,0,1,8.4261,3.5263c2.0655,2.3411,3.0428,5.95,2.9576,10.8021h-15.87a6.3632,6.3632,0,0,0,1.5389,4.4014,4.7568,4.7568,0,0,0,3.634,1.5588,3.8481,3.8481,0,0,0,2.5115-.812,4.9981,4.9981,0,0,0,1.5286-2.6116m.3608-6.4063a6.0708,6.0708,0,0,0-1.4131-4.18,4.323,4.323,0,0,0-3.2932-1.4387,4.4485,4.4485,0,0,0-3.4338,1.5137,5.8289,5.8289,0,0,0-1.3233,4.1052Z"/></svg>